<svg width="97" height="18" viewBox="0 0 97 18" fill="none" xmlns="http://www.w3.org/2000/svg">
<path d="M8.09375 1.5625L6.0625 5.71875L1.46875 6.375C0.65625 6.5 0.34375 7.5 0.9375 8.09375L4.21875 11.3125L3.4375 15.8438C3.3125 16.6562 4.1875 17.2812 4.90625 16.9062L9 14.75L13.0625 16.9062C13.7812 17.2812 14.6562 16.6562 14.5312 15.8438L13.75 11.3125L17.0312 8.09375C17.625 7.5 17.3125 6.5 16.5 6.375L11.9375 5.71875L9.875 1.5625C9.53125 0.84375 8.46875 0.8125 8.09375 1.5625ZM27.6938 1.5625L25.6625 5.71875L21.0688 6.375C20.2563 6.5 19.9438 7.5 20.5375 8.09375L23.8188 11.3125L23.0375 15.8438C22.9125 16.6562 23.7875 17.2812 24.5063 16.9062L28.6 14.75L32.6625 16.9062C33.3813 17.2812 34.2563 16.6562 34.1313 15.8438L33.35 11.3125L36.6313 8.09375C37.225 7.5 36.9125 6.5 36.1 6.375L31.5375 5.71875L29.475 1.5625C29.1313 0.84375 28.0688 0.8125 27.6938 1.5625ZM47.2938 1.5625L45.2625 5.71875L40.6688 6.375C39.8563 6.5 39.5438 7.5 40.1375 8.09375L43.4188 11.3125L42.6375 15.8438C42.5125 16.6562 43.3875 17.2812 44.1063 16.9062L48.2 14.75L52.2625 16.9062C52.9813 17.2812 53.8563 16.6562 53.7313 15.8438L52.95 11.3125L56.2313 8.09375C56.825 7.5 56.5125 6.5 55.7 6.375L51.1375 5.71875L49.075 1.5625C48.7313 0.84375 47.6688 0.8125 47.2938 1.5625ZM66.8937 1.5625L64.8625 5.71875L60.2687 6.375C59.4562 6.5 59.1437 7.5 59.7375 8.09375L63.0187 11.3125L62.2375 15.8438C62.1125 16.6562 62.9875 17.2812 63.7062 16.9062L67.8 14.75L71.8625 16.9062C72.5812 17.2812 73.4562 16.6562 73.3312 15.8438L72.55 11.3125L75.8312 8.09375C76.425 7.5 76.1125 6.5 75.3 6.375L70.7375 5.71875L68.675 1.5625C68.3312 0.84375 67.2687 0.8125 66.8937 1.5625Z" fill="#F6C416"/>
<path d="M86.4938 1.5625L84.4625 5.71875L79.8688 6.375C79.0563 6.5 78.7438 7.5 79.3375 8.09375L82.6188 11.3125L81.8375 15.8438C81.7125 16.6562 82.5875 17.2812 83.3063 16.9062L87.4 14.75L91.4625 16.9062C92.1813 17.2812 93.0563 16.6562 92.9313 15.8438L92.15 11.3125L95.4313 8.09375C96.025 7.5 95.7125 6.5 94.9 6.375L90.3375 5.71875L88.275 1.5625C87.9313 0.84375 86.8688 0.8125 86.4938 1.5625Z" fill="#E4E4E4"/>
</svg>
